<svg width="68" height="90" viewBox="0 0 68 90" fill="none" xmlns="http://www.w3.org/2000/svg">
<path d="M0.158691 71.1995V89.7646H67.8263V71.1995C67.8236 69.1298 67.0002 67.1455 65.5367 65.6819C64.0731 64.2184 62.0889 63.395 60.0191 63.3923H7.96591C5.89613 63.395 3.91187 64.2184 2.44831 65.6819C0.984751 67.1455 0.161353 69.1298 0.158691 71.1995H0.158691ZM5.36351 71.1995C5.3645 70.5096 5.63901 69.8483 6.12683 69.3605C6.61466 68.8726 7.27602 68.5982 7.96591 68.5972H10.5683V84.5636H5.36351V71.1995ZM15.7744 68.5972H22.5042L33.9925 80.0855L45.4808 68.5972H52.2068V84.5636H15.7744V68.5972ZM62.6215 71.1995V84.5598H57.4167V68.5934H60.0191C60.7096 68.5944 61.3716 68.8694 61.8595 69.3581C62.3474 69.8467 62.6215 70.509 62.6215 71.1995ZM38.1199 68.5972L33.9925 72.7245L29.8651 68.5972H38.1199Z" fill="#FF6875"/>
<path d="M53.464 52.9777H57.4204V47.7729H60.0229C62.0926 47.7702 64.0769 46.9468 65.5405 45.4832C67.004 44.0197 67.8274 42.0354 67.8301 39.9656V34.7608C67.8297 25.787 64.2646 17.1809 57.9189 10.8357C51.5733 4.49056 42.9669 0.926058 33.9931 0.926392C25.0193 0.926725 16.4132 4.49187 10.068 10.8375C3.72286 17.1832 0.158358 25.7896 0.158691 34.7633L0.158691 39.9682C0.161353 42.0379 0.984751 44.0222 2.44831 45.4857C3.91187 46.9493 5.89613 47.7727 7.96591 47.7754H11.9085C13.3559 51.8746 15.9159 55.4899 19.3018 58.2165C22.6876 60.943 26.7657 62.6732 31.0792 63.2132C35.3928 63.7532 39.7715 63.0818 43.725 61.274C47.6786 59.4662 51.0508 56.5935 53.464 52.9777ZM60.0229 42.5668H57.2696C57.3665 41.7027 57.4152 40.8339 57.4154 39.9644V34.7596C57.4152 33.8901 57.3665 33.0212 57.2696 32.1572H60.0178C60.7077 32.1582 61.3691 32.4327 61.8569 32.9205C62.3447 33.4083 62.6192 34.0697 62.6202 34.7596V39.9644C62.6206 40.6551 62.3467 41.3178 61.8587 41.8067C61.3707 42.2956 60.7086 42.5708 60.0178 42.5718L60.0229 42.5668ZM33.9925 6.13435C40.2502 6.1424 46.3336 8.19695 51.3148 11.9847C56.2959 15.7724 59.9016 21.0853 61.5818 27.1133C61.0675 27.0085 60.5439 26.9559 60.0191 26.9561H56.0752C54.4607 22.3894 51.47 18.4355 47.5151 15.639C43.5602 12.8424 38.8356 11.3407 33.9919 11.3407C29.1481 11.3407 24.4235 12.8424 20.4686 15.639C16.5137 18.4355 13.5231 22.3894 11.9085 26.9561H7.96591C7.44105 26.9559 6.91751 27.0085 6.40321 27.1133C8.0834 21.0853 11.689 15.7724 16.6702 11.9847C21.6514 8.19695 27.7348 6.1424 33.9925 6.13435ZM48.9381 24.3587C47.2554 26.7626 45.019 28.7264 42.4178 30.0844C39.8166 31.4423 36.9268 32.1545 33.9925 32.1609H15.9605C16.4815 28.5424 18.0795 25.1645 20.5467 22.4666C23.0138 19.7687 26.2357 17.8757 29.7934 17.034C33.351 16.1923 37.0796 16.4408 40.4941 17.7472C43.9086 19.0536 46.8508 21.3573 48.9381 24.3587ZM7.96591 42.5718C7.27602 42.5708 6.61466 42.2963 6.12683 41.8085C5.63901 41.3207 5.3645 40.6593 5.36351 39.9694V34.7646C5.3645 34.0747 5.63901 33.4133 6.12683 32.9255C6.61466 32.4377 7.27602 32.1632 7.96591 32.1622H10.7192C10.6223 33.0263 10.5736 33.8951 10.5733 34.7646V39.9694C10.5736 40.8389 10.6223 41.7077 10.7192 42.5718H7.96591ZM15.7731 39.9694V37.367H33.9925C37.288 37.3609 40.5453 36.662 43.5533 35.3157C46.5612 33.9694 49.2525 32.0058 51.4525 29.5522C51.9583 31.243 52.2145 32.9985 52.2131 34.7633V39.9682C52.2159 42.6692 51.6146 45.3368 50.453 47.7754H41.7997L39.5091 45.4898C38.0448 46.9539 36.0588 47.7764 33.9881 47.7764C31.9174 47.7764 29.9314 46.9539 28.4671 45.4898L24.7873 49.1696C27.0021 51.3844 29.9416 52.726 33.0659 52.9482C36.1903 53.1704 39.29 52.2582 41.7959 50.379V52.9777H46.7242C44.1629 55.4867 40.9179 57.1837 37.396 57.8559C33.8741 58.5281 30.2321 58.1455 26.9268 56.7561C23.6215 55.3668 20.7999 53.0325 18.8159 50.0459C16.832 47.0594 15.7739 43.5536 15.7744 39.9682L15.7731 39.9694Z" fill="#FF6875"/>
</svg>
