<svg width="102" height="66" viewBox="0 0 102 66" fill="none" xmlns="http://www.w3.org/2000/svg">
<path d="M101.46 33.9212C101.46 33.9023 101.46 33.8835 101.46 33.8646C101.451 33.2568 101.203 32.6769 100.77 32.2509C100.336 31.8248 99.7518 31.587 99.144 31.5891H98.5355L89.1241 13.4099C88.9282 13.0327 88.6321 12.7169 88.2684 12.497C87.9046 12.2772 87.4873 12.162 87.0623 12.164H71.004L71.6163 7.30748C71.7166 6.37885 71.6186 5.43951 71.3288 4.55157C71.039 3.66364 70.564 2.84735 69.9352 2.15666C69.3064 1.46598 68.5382 0.916627 67.6813 0.544955C66.8244 0.173283 65.8984 -0.0122447 64.9644 0.000626712H15.1239C14.515 0.00388188 13.9289 0.232589 13.4787 0.642608C13.0285 1.05263 12.7462 1.61489 12.6862 2.22084L12.1833 6.22126H40.5835C41.0186 6.21901 41.4496 6.3045 41.8509 6.47263C42.2521 6.64077 42.6153 6.88807 42.9188 7.19978C43.2223 7.51149 43.4598 7.88119 43.6172 8.28679C43.7746 8.69238 43.8485 9.12555 43.8347 9.56038C43.807 10.4522 43.4345 11.2985 42.7956 11.9213C42.1566 12.5441 41.301 12.8947 40.4088 12.8995H30.937V12.9133H3.12773C2.49743 12.9166 1.89291 13.164 1.44116 13.6035C0.989409 14.0431 0.725584 14.6406 0.705102 15.2706C0.694948 15.5783 0.747001 15.8849 0.858146 16.172C0.969291 16.4592 1.13724 16.7209 1.35194 16.9416C1.56663 17.1623 1.82366 17.3374 2.10762 17.4564C2.39158 17.5753 2.69664 17.6358 3.00452 17.6341H39.8279C40.665 17.7613 41.4265 18.191 41.9681 18.8418C42.5098 19.4926 42.7941 20.3193 42.7673 21.1656C42.7372 22.1165 42.3413 23.0191 41.6621 23.6852C40.9828 24.3513 40.0727 24.7296 39.1214 24.7411H13.7398C13.1017 24.7444 12.4899 24.9953 12.0333 25.4409C11.5767 25.8865 11.3109 26.492 11.292 27.1298C11.2815 27.4407 11.3339 27.7505 11.446 28.0406C11.5581 28.3308 11.7277 28.5954 11.9445 28.8184C12.1614 29.0415 12.421 29.2184 12.7079 29.3387C12.9948 29.459 13.303 29.5202 13.614 29.5185H38.7028C39.5479 29.6349 40.3203 30.0595 40.8716 30.7105C41.4229 31.3616 41.7143 32.1934 41.6899 33.0462C41.6599 34.0016 41.2607 34.9082 40.576 35.5752C39.8914 36.2423 38.9747 36.6178 38.0188 36.6229H9.24024H6.82139C6.18336 36.6262 5.57155 36.8771 5.11492 37.3227C4.65828 37.7683 4.39251 38.3738 4.37362 39.0116C4.36312 39.3225 4.4155 39.6323 4.52763 39.9225C4.63976 40.2126 4.80932 40.4772 5.02615 40.7002C5.24298 40.9233 5.50262 41.1003 5.7895 41.2205C6.07638 41.3408 6.38459 41.402 6.69567 41.4003H8.78262L7.9667 49.9417C7.86662 50.8702 7.96476 51.8094 8.25465 52.6972C8.54453 53.585 9.01955 54.4011 9.6483 55.0917C10.2771 55.7822 11.0452 56.3314 11.902 56.703C12.7588 57.0746 13.6847 57.2601 14.6185 57.2473H16.4201C16.8429 59.6674 18.1085 61.8599 19.9928 63.4363C21.8771 65.0128 24.2586 65.8715 26.7153 65.8604C29.2142 65.8429 31.6342 64.9833 33.5841 63.4203C35.534 61.8574 36.8997 59.6825 37.4606 57.2473H59.9281C61.7215 57.2313 63.4517 56.5826 64.8136 55.4155C66.0662 56.6089 67.7352 57.2661 69.4652 57.2473H69.8348C70.2576 59.6674 71.5232 61.8599 73.4075 63.4363C75.2918 65.0128 77.6733 65.8715 80.1301 65.8604C82.629 65.8429 85.049 64.9833 86.9988 63.4203C88.9487 61.8574 90.3145 59.6825 90.8754 57.2473H92.3551C94.2624 57.2106 96.0907 56.479 97.4969 55.1899C98.9031 53.9008 99.7905 52.1429 99.9926 50.2459L101.446 34.1537C101.446 34.1324 101.446 34.111 101.446 34.0884C101.446 34.0658 101.452 34.023 101.453 33.9891C101.455 33.9551 101.46 33.94 101.46 33.9212ZM26.8398 61.0868C26.0632 61.0902 25.2938 60.9371 24.5777 60.6368C23.8615 60.3364 23.2131 59.8948 22.6713 59.3385C22.1295 58.7821 21.7053 58.1223 21.424 57.3984C21.1427 56.6745 21.0101 55.9014 21.034 55.1251C21.0854 53.5334 21.7512 52.0233 22.8917 50.9118C24.0323 49.8003 25.559 49.1737 27.1516 49.1635C27.9282 49.1601 28.6975 49.3131 29.4137 49.6135C30.1299 49.9139 30.7782 50.3554 31.3201 50.9118C31.8619 51.4682 32.2861 52.128 32.5674 52.8519C32.8487 53.5758 32.9813 54.3489 32.9573 55.1251C32.906 56.7169 32.2402 58.2269 31.0997 59.3384C29.9591 60.45 28.4324 61.0766 26.8398 61.0868ZM80.257 61.0868C79.4804 61.0902 78.7111 60.9371 77.9949 60.6368C77.2787 60.3364 76.6304 59.8948 76.0885 59.3385C75.5467 58.7821 75.1225 58.1223 74.8412 57.3984C74.5599 56.6745 74.4273 55.9014 74.4513 55.1251C74.5026 53.5334 75.1684 52.0233 76.309 50.9118C77.4495 49.8003 78.9763 49.1737 80.5688 49.1635C81.3454 49.1601 82.1148 49.3131 82.8309 49.6135C83.5471 49.9139 84.1955 50.3554 84.7373 50.9118C85.2791 51.4682 85.7034 52.128 85.9846 52.8519C86.2659 53.5758 86.3986 54.3489 86.3746 55.1251C86.3232 56.7169 85.6575 58.2269 84.5169 59.3384C83.3763 60.45 81.8496 61.0766 80.257 61.0868ZM95.2466 49.9367C95.1667 50.621 94.8434 51.2538 94.3356 51.7196C93.8278 52.1854 93.1695 52.453 92.4808 52.4737H90.8816C90.3538 50.1708 89.0579 48.1161 87.2071 46.6476C85.3564 45.1791 83.0609 44.3842 80.6983 44.3937C78.2934 44.4104 75.9588 45.2071 74.0454 46.6641C72.132 48.1211 70.7432 50.1598 70.0875 52.4737H69.596C69.3113 52.4801 69.0284 52.4265 68.7659 52.3162C68.5033 52.206 68.267 52.0416 68.0722 51.8338C67.8816 51.6185 67.7383 51.3656 67.6516 51.0914C67.565 50.8172 67.537 50.5279 67.5694 50.2422L70.5766 16.9263H77.4824L76.3886 29.0583C76.2884 29.9869 76.3864 30.9263 76.6762 31.8142C76.966 32.7021 77.4409 33.5184 78.0697 34.2091C78.6985 34.8998 79.4667 35.4492 80.3236 35.8208C81.1805 36.1925 82.1065 36.378 83.0405 36.3652H96.4712L95.2466 49.9367Z" fill="#FF6875"/>
</svg>
