<svg width="70" height="80" viewBox="0 0 70 80" fill="none" xmlns="http://www.w3.org/2000/svg">
<path d="M55.7186 17.5076L51.947 22.3516C57.2931 26.4955 60.9773 32.4178 62.3316 39.0449C63.686 45.672 62.6208 52.565 59.3292 58.4741C56.0377 64.3832 50.7376 68.9172 44.3901 71.2541C38.0425 73.5909 31.0677 73.5759 24.7303 71.2116C18.3929 68.8474 13.1125 64.2906 9.84646 58.3673C6.58042 52.444 5.54501 45.5465 6.92795 38.9253C8.3109 32.3042 12.0206 26.3978 17.3846 22.277C22.7485 18.1563 29.4114 16.094 36.1653 16.4641L30.8587 22.031L34.795 25.7875L43.1717 16.9871L46.9245 13.0458L42.9944 9.30438L34.2003 0.926392L30.4451 4.86772L36.1729 10.324C27.3874 9.92391 18.7824 12.9041 12.1261 18.652C5.46986 24.3999 1.268 32.4791 0.384015 41.2291C-0.49997 49.9791 2.00107 58.7354 7.37317 65.6986C12.7453 72.6617 20.5804 77.3027 29.2683 78.668C31.061 78.9513 32.8732 79.0938 34.6881 79.0941C41.8532 79.0763 48.8341 76.8224 54.6569 72.6469C60.4796 68.4714 64.8538 62.5825 67.1693 55.8018C69.4848 49.0211 69.626 41.6867 67.5733 34.8219C65.5206 27.9571 61.3763 21.9042 55.7186 17.5076Z" fill="#FF6875"/>
<path d="M37.9849 62.2313V58.6985C42.1739 58.2308 46.2485 55.5857 46.2485 50.5619C46.2485 43.7366 39.9021 42.9546 35.2668 42.3838C32.3036 42.0293 30.0343 41.6182 30.0343 39.8229C30.0343 37.3261 33.5545 37.0571 35.0631 37.0571C37.3085 37.0571 39.7047 38.1131 40.5194 39.4596L40.7557 39.8518L45.4074 37.697L45.1773 37.228C44.487 35.863 43.4667 34.692 42.2092 33.8211C40.9517 32.9501 39.4967 32.4069 37.9761 32.2407V29.1292H32.5324V32.2256C27.4571 32.98 24.4423 35.7911 24.4423 39.8216C24.4423 46.393 30.409 47.0594 34.7627 47.5484C38.6424 48.006 40.4477 48.964 40.4477 50.5657C40.4477 53.6169 36.2223 53.8545 34.9274 53.8545C32.0446 53.8545 29.27 52.4163 28.4603 50.5053L28.2604 50.0339L23.209 52.1749L23.4101 52.6464C24.9075 56.1527 28.1397 58.349 32.5387 58.8682V62.2313H37.9849Z" fill="#FF6875"/>
</svg>
